<svg width="55" height="54" viewBox="0 0 55 54" fill="none" xmlns="http://www.w3.org/2000/svg">
<circle cx="27.0719" cy="26.972" r="13.486" fill="#72A479"/>
<g clip-path="url(#clip0_69_485)">
<path d="M31.2771 25.6967H28.3463V22.766C28.3463 22.046 27.7416 21.4566 27.0213 21.4566C26.301 21.4566 25.6962 22.046 25.6962 22.766V25.6967H22.7655C22.0454 25.6967 21.4561 26.3015 21.4561 27.0218C21.4561 27.7421 22.0454 28.3469 22.7655 28.3469H25.6962V31.2776C25.6962 31.9976 26.301 32.587 27.0213 32.587C27.7416 32.587 28.3463 31.9976 28.3463 31.2776V28.3469H31.2771C31.9971 28.3469 32.5865 27.7421 32.5865 27.0218C32.5865 26.3015 31.9971 25.6967 31.2771 25.6967Z" fill="white"/>
</g>
<defs>
<clipPath id="clip0_69_485">
<rect width="11.1304" height="11.1304" fill="white" transform="translate(21.4561 21.4566)"/>
</clipPath>
</defs>
</svg>
