<svg width="18" height="18" viewBox="0 0 18 18" fill="none" xmlns="http://www.w3.org/2000/svg">
<path fill-rule="evenodd" clip-rule="evenodd" d="M9.1755 1.74905C9.12566 1.70925 9.06378 1.68757 9 1.68757C8.93622 1.68757 8.87434 1.70925 8.8245 1.74905L2.91825 6.47405C2.88516 6.50046 2.85847 6.53402 2.84015 6.57219C2.82185 6.61038 2.81239 6.6522 2.8125 6.69455V14.5909C2.8125 14.7462 2.9385 14.8722 3.09375 14.8722H6.1875V8.96592C6.1875 8.74214 6.2764 8.52753 6.43463 8.3693C6.59286 8.21106 6.80748 8.12217 7.03125 8.12217H10.9688C11.1925 8.12217 11.4072 8.21106 11.5653 8.3693C11.7236 8.52753 11.8125 8.74214 11.8125 8.96592V14.8722H14.9062C14.9808 14.8722 15.0524 14.8426 15.1052 14.7898C15.1579 14.7371 15.1875 14.6655 15.1875 14.5909V6.69342C15.1874 6.65127 15.1779 6.60967 15.1596 6.57169C15.1413 6.53372 15.1147 6.50035 15.0817 6.47405L9.1755 1.74905ZM7.76925 0.431669C8.11838 0.152242 8.55225 0 8.99944 0C9.44662 0 9.88049 0.152242 10.2296 0.431669L16.1359 5.15667C16.6028 5.53016 16.875 6.09605 16.875 6.69455V14.5909C16.875 15.113 16.6676 15.6138 16.2983 15.983C15.9291 16.3522 15.4284 16.5597 14.9062 16.5597H10.9688C10.745 16.5597 10.5304 16.4708 10.3721 16.3125C10.2139 16.1543 10.125 15.9397 10.125 15.7159V9.80968H7.875V15.7159C7.875 15.9397 7.7861 16.1543 7.62787 16.3125C7.46964 16.4708 7.25502 16.5597 7.03125 16.5597H3.09375C2.5716 16.5597 2.07084 16.3522 1.70163 15.983C1.33242 15.6138 1.125 15.113 1.125 14.5909V6.69342C1.125 6.09605 1.39725 5.53016 1.86412 5.15667L7.77038 0.431669H7.76925Z" fill="white"/>
</svg>
